# xmcd
#
# Track frame offsets:
#	150
#	12641
#	26435
#	40474
#	54226
#	68302
#	82892
#	105031
#	123003
#	135571
#
# Disc length: 2009 seconds
#
# Revision: 1
# Processed by: cddbd v1.5.2PL0 Copyright (c) Steve Scherf et al.
# Submitted via: audiograbber 1.83.01
#
DISCID=6907d70a
DTITLE=Cactus Blossoms - Easy Way
DYEAR=2019
DGENRE=Country
TTITLE0=Desperado
TTITLE1=I'm Calling You
TTITLE2=Please Don't Call Me Crazy
TTITLE3=Got A Lotta Love
TTITLE4=Easy Way
TTITLE5=Downtown
TTITLE6=Boomerang
TTITLE7=See It Through
TTITLE8=I Am The Road
TTITLE9=Blue As The Ocean
EXTD=
EXTT0=
EXTT1=
EXTT2=
EXTT3=
EXTT4=
EXTT5=
EXTT6=
EXTT7=
EXTT8=
EXTT9=
PLAYORDER=
